name Walk1.mot
datacolumns 19
datarows 17
range 1.99000000 2.07000000
endheader

                time	   L_ground_force_vx	   L_ground_force_vy	   L_ground_force_vz	   L_ground_force_px	   L_ground_force_py	   L_ground_force_pz	   R_ground_force_vx	   R_ground_force_vy	   R_ground_force_vz	   R_ground_force_px	   R_ground_force_py	   R_ground_force_pz	   L_ground_torque_x	   L_ground_torque_y	   L_ground_torque_z	   R_ground_torque_x	   R_ground_torque_y	   R_ground_torque_z	
          1.99000000	         -0.00000001	         -0.00000003	          0.00000000	          0.00000000	          0.00000000	          0.00000000	         -0.58085679	         -1.14742983	         -0.08470791	          0.09520373	          0.00000000	          0.01884913	          0.00000000	          0.00000000	          0.00000000	          0.00000000	          0.10897440	          0.00000000	
          1.99500000	         -0.00000001	         -0.00000003	          0.00000000	          0.00000000	          0.00000000	          0.00000000	         -1.03060651	         -3.66007193	         -0.21008462	          0.05750378	          0.00000000	          0.01283420	          0.00000000	          0.00000000	          0.00000000	          0.00000000	          0.21224018	          0.00000000	
          2.00000000	         -0.00000001	         -0.00000002	          0.00000000	          0.00000000	          0.00000000	          0.00000000	         -1.23751378	         -4.98191320	         -0.27387113	          0.02877968	          0.00000000	          0.00796191	          0.00000000	          0.00000000	          0.00000000	          0.00000000	          0.26167690	          0.00000000	
          2.00500000	         -0.00000001	         -0.00000002	          0.00000000	          0.00000000	          0.00000000	          0.00000000	         -1.27232702	         -5.43557530	         -0.29311628	          0.00808335	          0.00000000	          0.00420772	          0.00000000	          0.00000000	          0.00000000	          0.00000000	          0.27268423	          0.00000000	
          2.01000000	         -0.00000000	         -0.00000001	          0.00000000	          0.00000000	          0.00000000	          0.00000000	         -1.19402640	         -5.29661174	         -0.28227587	         -0.00582811	          0.00000000	          0.00146745	          0.00000000	          0.00000000	          0.00000000	          0.00000000	          0.25817699	          0.00000000	
          2.01500000	         -0.00000000	         -0.00000001	          0.00000000	          0.00000000	          0.00000000	          0.00000000	         -1.04938068	         -4.78859915	         -0.25299952	         -0.01428832	          0.00000000	         -0.00040589	          0.00000000	          0.00000000	          0.00000000	          0.00000000	          0.22845510	          0.00000000	
          2.02000000	         -0.00000000	         -0.00000000	          0.00000000	          0.00000000	          0.00000000	          0.00000000	         -0.87362885	         -4.08410022	         -0.21421596	         -0.01858366	          0.00000000	         -0.00157513	          0.00000000	          0.00000000	          0.00000000	          0.00000000	          0.19132700	          0.00000000	
          2.02500000	         -0.00000000	         -0.00000000	          0.00000000	          0.00000000	          0.00000000	          0.00000000	         -0.69182913	         -3.30931577	         -0.17240292	         -0.01986843	          0.00000000	         -0.00220036	          0.00000000	          0.00000000	          0.00000000	          0.00000000	          0.15238581	          0.00000000	
          2.03000000	         -0.00000000	         -0.00000000	          0.00000000	          0.00000000	          0.00000000	          0.00000000	         -0.52052918	         -2.55073464	         -0.13195404	         -0.01912098	          0.00000000	         -0.00242729	          0.00000000	          0.00000000	          0.00000000	          0.00000000	          0.11536170	          0.00000000	
          2.03500000	          0.00000000	          0.00000000	          0.00000000	          0.00000000	          0.00000000	         -0.00000000	         -0.36951027	         -1.86253899	         -0.09557899	         -0.01712941	          0.00000000	         -0.00238085	          0.00000000	          0.00000000	          0.00000000	          0.00000000	          0.08249515	          0.00000000	
          2.04000000	          0.00000000	          0.00000000	          0.00000000	          0.00000000	          0.00000000	         -0.00000000	         -0.24344097	         -1.27390814	         -0.06469323	         -0.01449753	          0.00000000	         -0.00216277	          0.00000000	          0.00000000	          0.00000000	          0.00000000	          0.05489409	          0.00000000	
          2.04500000	          0.00000000	          0.00000000	         -0.00000000	          0.00000000	          0.00000000	         -0.00000000	         -0.14334194	         -0.79567984	         -0.03977034	         -0.01166318	          0.00000000	         -0.00185187	          0.00000000	          0.00000000	          0.00000000	          0.00000000	          0.03285261	          0.00000000	
          2.05000000	          0.00000000	          0.00000000	         -0.00000000	          0.00000000	          0.00000000	         -0.00000000	         -0.06781375	         -0.42607265	         -0.02064242	         -0.00892315	          0.00000000	         -0.00150603	          0.00000000	          0.00000000	          0.00000000	          0.00000000	          0.01611959	          0.00000000	
          2.05500000	          0.00000000	          0.00000000	         -0.00000000	         -0.00000000	          0.00000000	         -0.00000000	         -0.01401574	         -0.15535352	         -0.00674349	         -0.00646030	          0.00000000	         -0.00116515	          0.00000000	          0.00000000	          0.00000000	          0.00000000	          0.00411417	          0.00000000	
          2.06000000	          0.00000000	          0.00000000	         -0.00000000	         -0.00000000	          0.00000000	         -0.00000000	          0.02159235	          0.03054000	          0.00270295	         -0.00437000	          0.00000000	         -0.00085440	          0.00000000	         -0.00000000	          0.00000000	          0.00000000	         -0.00391006	          0.00000000	
          2.06500000	          0.00000000	          0.00000000	         -0.00000000	         -0.00000000	          0.00000000	         -0.00000000	          0.04271944	          0.14733457	          0.00854700	         -0.00268391	          0.00000000	         -0.00058754	          0.00000000	         -0.00000000	          0.00000000	          0.00000000	         -0.00874660	          0.00000000	
          2.07000000	          0.00000000	          0.00000000	         -0.00000000	         -0.00000000	          0.00000000	         -0.00000000	          0.05288924	          0.21058028	          0.01161871	         -0.00139039	          0.00000000	         -0.00036995	          0.00000000	         -0.00000000	          0.00000000	          0.00000000	         -0.01115644	          0.00000000	
